<?xml version="1.0" standalone="no"?>
<!DOCTYPE svg PUBLIC "-//W3C//DTD SVG 20010904//EN"
 "http://www.w3.org/TR/2001/REC-SVG-20010904/DTD/svg10.dtd">
<svg version="1.0" xmlns="http://www.w3.org/2000/svg"
 width="512.000000pt" height="512.000000pt" viewBox="0 0 512.000000 512.000000"
 preserveAspectRatio="xMidYMid meet">

<g transform="translate(0.000000,512.000000) scale(0.100000,-0.100000)"
fill="#000000" stroke="none">
<path d="M3000 4923 c-14 -2 -56 -11 -95 -20 -508 -117 -833 -628 -719 -1131
8 -35 14 -67 14 -73 0 -5 -22 5 -49 21 -127 78 -277 126 -368 117 -99 -10
-186 -69 -224 -152 -29 -62 -26 -177 6 -241 14 -28 35 -60 48 -71 32 -31 1171
-731 1242 -764 75 -35 179 -51 260 -40 33 5 238 57 455 115 218 58 404 106
413 106 10 0 30 -8 45 -17 15 -9 28 -18 30 -19 1 0 -11 -30 -28 -65 -45 -95
-37 -163 26 -220 41 -37 228 -139 267 -146 49 -8 109 13 144 49 37 40 553 948
567 998 14 55 0 107 -42 151 -54 56 -246 159 -296 159 -62 0 -120 -34 -156
-91 l-32 -49 -62 34 c-33 19 -131 75 -216 125 l-155 90 -1 168 c-1 183 -14
255 -74 395 -97 227 -315 434 -547 518 -138 50 -331 72 -453 53z m260 -167
c93 -17 192 -53 267 -97 82 -48 231 -199 281 -284 68 -117 111 -275 112 -410
0 -72 -8 -94 -31 -88 -17 5 -19 15 -19 95 0 118 -22 213 -75 323 -51 105 -117
191 -199 257 -376 302 -934 182 -1145 -246 -60 -122 -76 -190 -76 -336 0 -103
5 -138 24 -200 26 -84 71 -179 108 -228 14 -18 23 -35 22 -37 -2 -2 -23 8 -47
22 -34 20 -49 39 -77 98 -56 115 -77 212 -78 345 0 143 18 220 85 359 44 91
61 116 141 196 103 103 191 160 309 199 138 46 263 56 398 32z m51 -228 c37
-14 88 -37 115 -53 69 -40 173 -149 212 -222 42 -80 72 -198 72 -285 0 -58 -3
-68 -17 -68 -10 0 -75 -20 -145 -43 l-128 -44 -15 52 c-17 58 -65 114 -125
145 -22 11 -80 30 -130 41 -49 11 -101 30 -115 41 -41 32 -29 85 25 113 64 33
146 8 182 -56 35 -63 104 -72 142 -17 21 30 20 51 -4 98 -27 53 -83 105 -136
127 -33 13 -44 23 -44 40 0 12 -3 29 -6 38 -7 18 -55 45 -79 45 -25 0 -75 -55
-75 -83 0 -20 -7 -28 -34 -37 -48 -15 -116 -77 -137 -124 -10 -23 -19 -64 -19
-94 0 -129 79 -208 247 -246 123 -28 153 -46 153 -95 0 -35 -23 -56 -78 -71
-81 -21 -151 8 -186 79 -26 51 -40 61 -84 61 -60 -1 -90 -56 -67 -120 8 -23
24 -55 36 -71 l21 -29 -41 -46 c-22 -25 -45 -61 -51 -80 -6 -19 -15 -34 -19
-34 -18 0 -127 121 -163 181 -118 195 -111 440 19 632 80 118 194 199 334 237
101 28 246 22 340 -12z m539 -811 c36 -12 181 -89 323 -171 l257 -149 -18 -31
c-10 -17 -74 -129 -141 -248 -68 -120 -127 -218 -132 -218 -5 0 -33 14 -62 30
-30 17 -63 30 -75 30 -12 0 -215 -52 -451 -115 -484 -130 -529 -137 -627 -91
-80 37 -1177 714 -1201 742 -17 19 -23 37 -23 75 0 90 64 124 179 95 79 -20
87 -24 489 -258 189 -110 369 -209 400 -221 44 -16 79 -21 157 -21 109 1 222
23 470 94 152 43 175 58 175 115 0 38 -37 75 -74 75 -12 0 -102 -22 -201 -50
-270 -75 -311 -75 -341 -5 -33 81 5 117 163 155 65 16 224 65 353 109 141 48
251 81 275 81 22 0 69 -11 105 -23z m934 -248 c50 -28 93 -53 95 -55 2 -2 -48
-94 -112 -206 -63 -112 -181 -320 -262 -463 -81 -143 -149 -262 -151 -264 -8
-8 -189 107 -186 119 4 17 515 920 521 920 3 0 46 -23 95 -51z"/>
<path d="M4682 3404 c-34 -23 -27 -83 11 -104 24 -13 30 -13 55 0 37 21 44 81
10 104 -12 9 -29 16 -38 16 -9 0 -26 -7 -38 -16z"/>
<path d="M935 4125 c-131 -103 -145 -118 -145 -151 0 -33 31 -65 157 -164 129
-99 156 -108 198 -65 35 34 33 78 -4 115 l-29 29 435 3 435 3 19 24 c26 32 24
77 -6 106 l-24 25 -433 0 -432 0 32 33 c39 40 43 84 9 115 -45 43 -79 31 -212
-73z"/>
<path d="M1980 2847 c-41 -24 -201 -117 -356 -206 -155 -89 -290 -171 -300
-182 -18 -20 -19 -44 -22 -358 l-3 -336 -75 -24 c-49 -15 -165 -76 -341 -177
-147 -85 -268 -154 -270 -154 -2 0 -17 22 -34 49 -38 63 -99 96 -164 89 -50
-6 -232 -103 -282 -151 -40 -37 -57 -86 -50 -139 4 -26 81 -173 238 -451 340
-602 321 -571 374 -597 69 -33 113 -24 242 48 60 34 121 74 135 89 56 59 62
123 18 209 -16 32 -30 62 -30 65 0 3 18 14 40 24 l40 18 418 -111 c229 -61
438 -113 463 -117 65 -8 174 11 245 44 66 31 1165 704 1224 750 54 42 90 121
90 199 0 89 -16 136 -67 192 -89 99 -230 114 -403 41 -36 -15 -221 -118 -413
-229 -191 -112 -354 -205 -361 -208 -10 -4 -13 0 -10 13 3 11 101 74 255 162
138 80 257 154 265 165 12 17 14 93 14 438 0 275 -4 425 -11 441 -12 27 -7 24
-422 263 -199 115 -328 184 -345 184 -15 0 -61 -20 -102 -43z m180 -177 c-1
-3 -120 -73 -265 -156 l-263 -151 -36 20 c-20 12 -36 24 -36 28 0 4 117 75
260 157 l261 150 39 -22 c22 -11 40 -23 40 -26z m189 -109 c7 -5 9 -11 5 -14
-5 -2 -123 -71 -263 -151 -205 -118 -259 -146 -275 -138 -16 7 3 22 125 92 79
45 196 113 259 151 122 71 127 74 149 60z m220 -124 c32 -18 39 -26 29 -34
-30 -24 -506 -293 -518 -293 -7 0 -28 9 -47 21 l-34 21 263 153 c145 84 264
153 264 154 1 1 21 -10 43 -22z m-1019 -362 c3 -83 10 -157 15 -167 10 -17
198 -132 243 -149 31 -12 78 5 92 32 6 10 10 63 10 119 l0 101 43 -23 42 -23
3 -189 2 -188 -32 7 c-18 4 -105 32 -193 62 -88 30 -195 67 -237 81 l-78 26 0
254 0 253 43 -23 42 -23 5 -150z m1150 -113 l0 -308 -196 -113 -196 -113 -30
36 c-16 20 -49 48 -74 62 l-44 26 2 205 3 205 265 154 c146 84 266 154 268
154 1 0 2 -139 2 -308z m-966 152 c12 -5 16 -21 16 -70 0 -62 -1 -64 -20 -54
-17 9 -20 21 -20 70 0 33 2 60 4 60 2 0 11 -3 20 -6z m-189 -550 c213 -76 333
-113 459 -144 121 -30 151 -46 167 -89 12 -31 -6 -86 -34 -106 -35 -24 -84
-18 -295 40 -111 30 -210 55 -220 55 -11 0 -31 -9 -46 -21 -33 -26 -37 -86 -7
-113 11 -10 90 -38 175 -62 263 -74 330 -87 451 -88 95 0 118 3 170 25 33 14
213 114 400 224 186 109 362 208 390 220 114 51 215 52 250 2 24 -34 20 -111
-7 -141 -28 -31 -1168 -733 -1223 -753 -90 -33 -141 -24 -602 100 -238 65
-442 117 -454 117 -12 0 -46 -14 -75 -31 -30 -17 -59 -29 -64 -27 -6 2 -73
113 -149 248 l-139 245 41 26 c180 111 511 291 557 303 85 23 116 19 255 -30z
m-846 -640 c144 -256 261 -467 259 -468 -12 -12 -190 -107 -193 -105 -10 11
-527 931 -524 933 9 7 184 106 189 106 3 0 124 -210 269 -466z"/>
<path d="M362 1274 c-34 -23 -27 -83 11 -104 24 -13 30 -13 55 0 36 20 42 70
13 99 -25 25 -49 27 -79 5z"/>
<path d="M3875 2235 c-36 -35 -33 -79 6 -116 l30 -28 -436 -3 -437 -3 -19 -24
c-26 -32 -24 -77 6 -106 l24 -25 433 0 432 0 -32 -33 c-37 -39 -41 -73 -11
-111 15 -19 30 -26 56 -26 29 0 56 16 164 101 135 106 151 127 130 177 -7 15
-66 69 -138 125 -138 107 -165 116 -208 72z"/>
</g>
</svg>
